<svg width="402" height="171" viewBox="0 0 402 171" fill="none" xmlns="http://www.w3.org/2000/svg">
<path d="M203.614 77C202.761 77 202.014 76.7013 201.374 76.104C200.777 75.464 200.478 74.7173 200.478 73.864V36.616C200.478 33.288 202.483 31.624 206.494 31.624V71.688H226.142C227.635 71.688 228.787 72.1573 229.598 73.096C230.409 73.992 230.814 75.2933 230.814 77H203.614ZM241.765 39.624C240.57 39.624 239.567 39.24 238.757 38.472C237.946 37.704 237.541 36.744 237.541 35.592C237.541 34.44 237.946 33.5013 238.757 32.776C239.567 32.008 240.57 31.624 241.765 31.624C242.917 31.624 243.898 32.008 244.709 32.776C245.519 33.5013 245.925 34.44 245.925 35.592C245.925 36.744 245.519 37.704 244.709 38.472C243.898 39.24 242.917 39.624 241.765 39.624ZM238.949 48.52C238.949 47.112 239.397 46.088 240.293 45.448C241.231 44.7653 242.639 44.424 244.517 44.424V73.48C244.517 74.888 244.047 75.9333 243.109 76.616C242.213 77.256 240.826 77.576 238.949 77.576V48.52ZM267.652 77.576C264.622 77.576 262.361 76.7227 260.868 75.016C259.374 73.2667 258.628 70.984 258.628 68.168V49.48H252.676C252.676 48.0293 252.996 46.92 253.636 46.152C254.276 45.384 255.15 45 256.26 45H258.692V38.92C258.692 37.512 259.14 36.488 260.036 35.848C260.974 35.1653 262.361 34.824 264.196 34.824V45H272.708C272.708 47.9867 271.364 49.48 268.676 49.48H264.26V67.976C264.26 69.6827 264.558 70.8987 265.156 71.624C265.796 72.3067 266.926 72.648 268.548 72.648C270.041 72.648 271.449 72.264 272.772 71.496C273.326 72.0507 273.604 72.7973 273.604 73.736C273.604 74.76 273.07 75.656 272.004 76.424C270.937 77.192 269.486 77.576 267.652 77.576ZM293.217 77.576C290.614 77.576 288.289 77.0853 286.241 76.104C284.193 75.08 282.593 73.6933 281.441 71.944C280.289 70.152 279.713 68.1467 279.713 65.928V56.456C279.713 54.1947 280.31 52.1467 281.505 50.312C282.742 48.4773 284.385 47.048 286.433 46.024C288.524 44.9573 290.785 44.424 293.217 44.424C295.649 44.424 297.868 44.936 299.873 45.96C301.921 46.984 303.521 48.392 304.673 50.184C305.868 51.976 306.465 54.0027 306.465 56.264V60.36C306.465 61.0427 306.209 61.6187 305.697 62.088C305.185 62.5573 304.566 62.792 303.841 62.792H285.153V65.672C285.153 67.848 285.836 69.5973 287.201 70.92C288.609 72.2427 290.614 72.904 293.217 72.904C295.82 72.904 297.804 72.328 299.169 71.176C300.534 70.024 301.217 68.4667 301.217 66.504C302.497 66.4187 303.564 66.6747 304.417 67.272C305.313 67.8267 305.761 68.6587 305.761 69.768C305.761 71.1333 305.164 72.4133 303.969 73.608C302.817 74.8027 301.281 75.7627 299.361 76.488C297.441 77.2133 295.393 77.576 293.217 77.576ZM301.281 58.44V56.264C301.281 54.1307 300.534 52.4027 299.041 51.08C297.59 49.7147 295.649 49.032 293.217 49.032C290.785 49.032 288.822 49.7147 287.329 51.08C285.878 52.4027 285.153 54.1307 285.153 56.264V58.44H301.281ZM327.741 49.352C325.352 49.352 323.368 50.0773 321.789 51.528C320.21 52.936 319.421 54.664 319.421 56.712V73.48C319.421 74.888 318.952 75.9333 318.013 76.616C317.117 77.256 315.73 77.576 313.853 77.576V49.16C313.853 46.0027 315.645 44.424 319.229 44.424V48.328C318.546 49.0533 318.077 49.6933 317.821 50.248L318.077 50.504C320.808 46.4507 324.221 44.424 328.317 44.424C329.853 44.424 331.026 44.808 331.837 45.576C332.648 46.3013 333.053 47.1973 333.053 48.264C333.053 49.032 332.861 49.7147 332.477 50.312C331.282 49.672 329.704 49.352 327.741 49.352Z" fill="white"/>
<path d="M237.854 104.512H222.238C222.238 100.971 223.902 99.2 227.23 99.2H259.422C259.422 102.741 257.758 104.512 254.43 104.512H243.87V139.584C243.87 141.205 243.358 142.443 242.334 143.296C241.31 144.149 239.817 144.576 237.854 144.576V104.512ZM270.092 144.576C267.489 144.576 265.164 144.085 263.116 143.104C261.068 142.08 259.468 140.693 258.316 138.944C257.164 137.152 256.588 135.147 256.588 132.928V123.456C256.588 121.195 257.185 119.147 258.38 117.312C259.617 115.477 261.26 114.048 263.308 113.024C265.399 111.957 267.66 111.424 270.092 111.424C272.524 111.424 274.743 111.936 276.748 112.96C278.796 113.984 280.396 115.392 281.548 117.184C282.743 118.976 283.34 121.003 283.34 123.264V127.36C283.34 128.043 283.084 128.619 282.572 129.088C282.06 129.557 281.441 129.792 280.716 129.792H262.028V132.672C262.028 134.848 262.711 136.597 264.076 137.92C265.484 139.243 267.489 139.904 270.092 139.904C272.695 139.904 274.679 139.328 276.044 138.176C277.409 137.024 278.092 135.467 278.092 133.504C279.372 133.419 280.439 133.675 281.292 134.272C282.188 134.827 282.636 135.659 282.636 136.768C282.636 138.133 282.039 139.413 280.844 140.608C279.692 141.803 278.156 142.763 276.236 143.488C274.316 144.213 272.268 144.576 270.092 144.576ZM278.156 125.44V123.264C278.156 121.131 277.409 119.403 275.916 118.08C274.465 116.715 272.524 116.032 270.092 116.032C267.66 116.032 265.697 116.715 264.204 118.08C262.753 119.403 262.028 121.131 262.028 123.264V125.44H278.156ZM300.415 144.576C296.745 144.576 293.78 143.595 291.519 141.632C289.3 139.669 288.191 137.088 288.191 133.888C288.191 130.645 289.364 128.043 291.711 126.08C294.057 124.075 297.151 123.072 300.991 123.072C305.087 123.072 308.457 124.523 311.103 127.424L311.359 127.168C310.889 126.656 310.356 126.123 309.759 125.568V122.88C309.759 120.704 309.076 119.019 307.711 117.824C306.345 116.629 304.404 116.032 301.887 116.032C297.407 116.032 294.207 117.803 292.287 121.344C291.604 121.003 291.028 120.555 290.559 120C290.132 119.403 289.919 118.805 289.919 118.208C289.919 117.056 290.495 115.968 291.647 114.944C292.799 113.877 294.313 113.024 296.191 112.384C298.111 111.744 300.116 111.424 302.207 111.424C306.26 111.424 309.439 112.427 311.743 114.432C314.089 116.437 315.263 119.211 315.263 122.752V140.288C315.263 141.781 314.836 142.869 313.983 143.552C313.129 144.235 311.785 144.576 309.951 144.576V141.568C310.847 140.629 311.337 140.075 311.423 139.904L311.167 139.648C308.393 142.933 304.809 144.576 300.415 144.576ZM301.375 140.16C304.02 140.16 306.089 139.605 307.583 138.496C309.119 137.387 309.887 135.851 309.887 133.888C309.887 131.925 309.14 130.368 307.647 129.216C306.153 128.064 304.105 127.488 301.503 127.488C299.071 127.488 297.151 128.064 295.743 129.216C294.377 130.325 293.695 131.883 293.695 133.888C293.695 135.893 294.356 137.451 295.679 138.56C297.044 139.627 298.943 140.16 301.375 140.16ZM323.916 116.16C323.916 113.003 325.686 111.424 329.228 111.424V115.52C328.673 116.117 328.225 116.693 327.884 117.248L328.14 117.504C329.505 115.584 330.956 114.091 332.492 113.024C334.028 111.957 335.798 111.424 337.804 111.424C341.686 111.424 344.353 113.28 345.804 116.992C348.236 113.28 351.478 111.424 355.532 111.424C358.561 111.424 360.886 112.448 362.508 114.496C364.172 116.501 365.004 119.147 365.004 122.432V140.48C365.004 141.888 364.534 142.933 363.596 143.616C362.7 144.256 361.334 144.576 359.5 144.576V122.752C359.5 120.704 359.073 119.104 358.22 117.952C357.366 116.8 356.022 116.224 354.188 116.224C352.268 116.224 350.625 116.885 349.26 118.208C347.894 119.488 347.212 121.216 347.212 123.392V140.48C347.212 141.888 346.764 142.933 345.868 143.616C344.972 144.256 343.606 144.576 341.772 144.576V122.752C341.772 120.704 341.345 119.104 340.492 117.952C339.638 116.8 338.294 116.224 336.46 116.224C334.497 116.224 332.833 116.928 331.468 118.336C330.102 119.744 329.42 121.472 329.42 123.52V140.48C329.42 141.888 328.95 142.933 328.012 143.616C327.116 144.256 325.75 144.576 323.916 144.576V116.16ZM384.937 144.576C382.761 144.576 380.713 144.256 378.793 143.616C376.873 142.933 375.316 141.973 374.121 140.736C372.969 139.499 372.393 138.048 372.393 136.384C372.393 134.336 373.63 133.227 376.105 133.056C376.532 135.445 377.534 137.216 379.113 138.368C380.734 139.477 382.782 140.032 385.257 140.032C387.732 140.032 389.652 139.669 391.017 138.944C392.382 138.219 393.065 137.109 393.065 135.616C393.065 134.549 392.788 133.696 392.233 133.056C391.678 132.373 390.782 131.797 389.545 131.328C388.35 130.816 386.622 130.325 384.361 129.856C381.545 129.216 379.305 128.533 377.641 127.808C375.977 127.083 374.697 126.123 373.801 124.928C372.948 123.733 372.521 122.155 372.521 120.192C372.521 118.528 373.033 117.035 374.057 115.712C375.081 114.347 376.489 113.301 378.281 112.576C380.116 111.808 382.185 111.424 384.489 111.424C386.622 111.424 388.628 111.723 390.505 112.32C392.425 112.917 393.961 113.771 395.113 114.88C396.308 115.989 396.905 117.269 396.905 118.72C396.905 119.701 396.521 120.491 395.753 121.088C394.985 121.643 393.918 121.963 392.553 122.048C392.425 120.171 391.657 118.699 390.249 117.632C388.884 116.523 386.964 115.968 384.489 115.968C382.441 115.968 380.82 116.352 379.625 117.12C378.43 117.888 377.833 118.912 377.833 120.192C377.833 121.557 378.388 122.581 379.497 123.264C380.649 123.904 382.59 124.523 385.321 125.12C389.801 126.016 393.086 127.253 395.177 128.832C397.31 130.368 398.377 132.565 398.377 135.424C398.377 138.325 397.204 140.587 394.857 142.208C392.51 143.787 389.204 144.576 384.937 144.576Z" fill="#F34242"/>
<path d="M120.991 15.0272C123.099 14.6389 125.255 15.4049 126.645 17.0365L150.04 44.4923C151.431 46.1239 151.845 48.3732 151.127 50.3931L139.047 84.3821C138.33 86.4019 136.589 87.8854 134.481 88.2736L99.0054 94.8068C96.8972 95.1951 94.7421 94.4292 93.3518 92.7976L69.9562 65.3417C68.5659 63.7102 68.1517 61.4608 68.8695 59.441L80.9492 25.4519C81.667 23.4321 83.4079 21.9487 85.5161 21.5604L120.991 15.0272Z" fill="#131212"/>
<path d="M120.991 15.0272C123.099 14.6389 125.255 15.4049 126.645 17.0365L150.04 44.4923C151.431 46.1239 151.845 48.3732 151.127 50.3931L139.047 84.3821C138.33 86.4019 136.589 87.8854 134.481 88.2736L99.0054 94.8068C96.8972 95.1951 94.7421 94.4292 93.3518 92.7976L69.9562 65.3417C68.5659 63.7102 68.1517 61.4608 68.8695 59.441L80.9492 25.4519C81.667 23.4321 83.4079 21.9487 85.5161 21.5604L120.991 15.0272Z" fill="white"/>
<path d="M103.676 63.8499C115.335 64.2209 126.874 61.3983 137.046 55.6873L138.34 54.9607C143.173 52.2466 148.787 56.9782 146.931 62.2017L139.048 84.3823C138.33 86.4022 136.589 87.8856 134.481 88.2738L99.0057 94.8071C96.8975 95.1953 94.7424 94.4294 93.3521 92.7978L76.5034 73.025C73.1255 69.0609 76.0557 62.9709 81.2611 63.1365L103.676 63.8499Z" fill="#F34242"/>
<path d="M100.841 42.158L98.5061 41.3281C97.609 41.0093 97.013 40.4706 96.718 39.712C96.4494 38.9628 96.4933 38.0869 96.8496 37.0844L103.973 39.6161C104.474 39.7942 104.822 40.111 105.017 40.5665C105.248 41.005 105.283 41.4485 105.124 41.8971L96.8394 65.2067C96.4831 66.2093 95.8946 66.8619 95.0739 67.1645C94.2531 67.4671 93.2359 67.4028 92.0223 66.9715L100.841 42.158ZM102.126 70.1611C101.598 69.9735 101.228 69.6784 101.014 69.2757C100.827 68.8823 100.823 68.435 101.001 67.9337C101.723 65.9022 103.176 64.2792 105.361 63.0647C107.546 61.8503 110.61 60.9631 114.553 60.4033C116.809 60.0758 118.552 59.7294 119.781 59.364C121.046 58.9816 121.99 58.4998 122.612 57.9187C123.271 57.3206 123.778 56.5203 124.134 55.5178C124.688 53.9611 124.595 52.591 123.857 51.4075C123.145 50.2333 121.813 49.2993 119.86 48.6054C117.75 47.8553 115.923 47.7705 114.379 48.3511C112.862 48.9411 111.784 50.1331 111.147 51.9272C110.978 52.4021 110.839 52.9175 110.731 53.4733L110.242 53.3441C109.292 53.0065 108.586 52.4435 108.123 51.655C107.661 50.8666 107.575 50.0634 107.865 49.2455C108.372 47.8208 109.293 46.6921 110.629 45.8594C111.974 45.0004 113.556 44.5223 115.373 44.4253C117.226 44.3113 119.116 44.5966 121.042 45.2811C123.021 45.9843 124.631 46.9283 125.874 48.113C127.118 49.2976 127.914 50.6506 128.265 52.1719C128.625 53.6669 128.515 55.2322 127.933 56.868C127.268 58.7412 125.982 60.1859 124.075 61.2022C122.195 62.2279 119.346 63.013 115.527 63.5576C109.976 64.3779 106.698 65.7834 105.693 67.7739L119.267 72.5981C120.27 72.9545 120.937 73.5034 121.267 74.245C121.598 74.9866 121.576 75.885 121.201 76.9404L102.126 70.1611Z" fill="white"/>
<path d="M100.841 42.158L98.5061 41.3281C97.609 41.0093 97.013 40.4706 96.718 39.712C96.4494 38.9628 96.4933 38.0869 96.8496 37.0844L103.973 39.6161C104.474 39.7942 104.822 40.111 105.017 40.5665C105.248 41.005 105.283 41.4485 105.124 41.8971L96.8394 65.2067C96.4831 66.2093 95.8946 66.8619 95.0739 67.1645C94.2531 67.4671 93.2359 67.4028 92.0223 66.9715L100.841 42.158ZM102.126 70.1611C101.598 69.9735 101.228 69.6784 101.014 69.2757C100.827 68.8823 100.823 68.435 101.001 67.9337C101.723 65.9022 103.176 64.2792 105.361 63.0647C107.546 61.8503 110.61 60.9631 114.553 60.4033C116.809 60.0758 118.552 59.7294 119.781 59.364C121.046 58.9816 121.99 58.4998 122.612 57.9187C123.271 57.3206 123.778 56.5203 124.134 55.5178C124.688 53.9611 124.595 52.591 123.857 51.4075C123.145 50.2333 121.813 49.2993 119.86 48.6054C117.75 47.8553 115.923 47.7705 114.379 48.3511C112.862 48.9411 111.784 50.1331 111.147 51.9272C110.978 52.4021 110.839 52.9175 110.731 53.4733L110.242 53.3441C109.292 53.0065 108.586 52.4435 108.123 51.655C107.661 50.8666 107.575 50.0634 107.865 49.2455C108.372 47.8208 109.293 46.6921 110.629 45.8594C111.974 45.0004 113.556 44.5223 115.373 44.4253C117.226 44.3113 119.116 44.5966 121.042 45.2811C123.021 45.9843 124.631 46.9283 125.874 48.113C127.118 49.2976 127.914 50.6506 128.265 52.1719C128.625 53.6669 128.515 55.2322 127.933 56.868C127.268 58.7412 125.982 60.1859 124.075 61.2022C122.195 62.2279 119.346 63.013 115.527 63.5576C109.976 64.3779 106.698 65.7834 105.693 67.7739L119.267 72.5981C120.27 72.9545 120.937 73.5034 121.267 74.245C121.598 74.9866 121.576 75.885 121.201 76.9404L102.126 70.1611Z" fill="#131212"/>
<path d="M92.114 136.788C91.5592 138.858 89.9419 140.475 87.8714 141.03L53.0287 150.366C50.9582 150.921 48.7489 150.329 47.2332 148.813L21.7265 123.307C20.2108 121.791 19.6188 119.582 20.1736 117.511L29.5097 82.6685C30.0645 80.5979 31.6818 78.9807 33.7523 78.4259L68.595 69.0898C70.6656 68.535 72.8748 69.127 74.3906 70.6427L99.8972 96.1493C101.413 97.6651 102.005 99.8743 101.45 101.945L92.114 136.788Z" fill="#131212"/>
<path d="M92.114 136.788C91.5592 138.858 89.9419 140.475 87.8714 141.03L53.0287 150.366C50.9582 150.921 48.7489 150.329 47.2332 148.813L21.7265 123.307C20.2108 121.791 19.6188 119.582 20.1736 117.511L29.5097 82.6685C30.0645 80.5979 31.6818 78.9807 33.7523 78.4259L68.595 69.0898C70.6656 68.535 72.8748 69.127 74.3906 70.6427L99.8972 96.1493C101.413 97.6651 102.005 99.8743 101.45 101.945L92.114 136.788Z" fill="white"/>
<path d="M92.1134 136.788C91.5586 138.858 89.9413 140.476 87.8707 141.03L53.0281 150.366C50.9575 150.921 48.7483 150.329 47.2325 148.813L28.9309 130.512C25.2379 126.819 27.6995 120.498 32.9176 120.275L41.4789 119.909C49.0983 119.584 56.5982 117.899 63.6248 114.935L91.0432 103.367C95.6434 101.427 100.463 105.626 99.171 110.448L92.1134 136.788Z" fill="#F34242"/>
<path d="M48.5205 97.4439C50.0648 95.8995 51.7972 94.8403 53.7177 94.2661C55.6184 93.7118 57.5092 93.6821 59.3901 94.177C61.2908 94.6918 62.9836 95.6917 64.4686 97.1766C65.4783 98.1863 66.2703 99.3941 66.8444 100.8C67.4384 102.225 67.7651 103.74 67.8245 105.344L68.3591 118.767C68.4184 119.698 68.171 120.44 67.6166 120.995C66.9236 121.688 66.0327 122.005 64.9437 121.945L64.5576 112.353C64.914 111.798 65.2407 111.155 65.5377 110.422L65.1813 110.303C64.9635 110.798 64.6665 111.333 64.2904 111.907C63.9142 112.481 63.538 112.956 63.1618 113.333C61.7759 114.718 60.1821 115.659 58.3804 116.154C56.5787 116.649 54.7868 116.659 53.0049 116.184C51.223 115.708 49.6391 114.778 48.2532 113.392C46.7683 111.907 45.7783 110.204 45.2833 108.284C44.7884 106.403 44.8181 104.512 45.3724 102.611C45.9268 100.711 46.9761 98.9882 48.5205 97.4439ZM50.9854 99.9088C49.9757 100.919 49.2926 102.057 48.9362 103.324C48.5799 104.631 48.5799 105.918 48.9362 107.185C49.2926 108.492 49.9757 109.65 50.9854 110.66C51.9952 111.669 53.1435 112.343 54.4305 112.679C55.7174 113.055 57.0043 113.055 58.2913 112.679C59.5782 112.343 60.7265 111.669 61.7363 110.66C62.746 109.65 63.4192 108.502 63.7558 107.215C64.1122 105.948 64.1122 104.661 63.7558 103.354C63.3994 102.087 62.7163 100.948 61.7066 99.9385C60.6968 98.9288 59.5485 98.2358 58.2616 97.8596C56.9746 97.5231 55.6877 97.5231 54.4008 97.8596C53.1336 98.216 51.9952 98.8991 50.9854 99.9088Z" fill="white"/>
<path d="M48.5205 97.4439C50.0648 95.8995 51.7972 94.8403 53.7177 94.2661C55.6184 93.7118 57.5092 93.6821 59.3901 94.177C61.2908 94.6918 62.9836 95.6917 64.4686 97.1766C65.4783 98.1863 66.2703 99.3941 66.8444 100.8C67.4384 102.225 67.7651 103.74 67.8245 105.344L68.3591 118.767C68.4184 119.698 68.171 120.44 67.6166 120.995C66.9236 121.688 66.0327 122.005 64.9437 121.945L64.5576 112.353C64.914 111.798 65.2407 111.155 65.5377 110.422L65.1813 110.303C64.9635 110.798 64.6665 111.333 64.2904 111.907C63.9142 112.481 63.538 112.956 63.1618 113.333C61.7759 114.718 60.1821 115.659 58.3804 116.154C56.5787 116.649 54.7868 116.659 53.0049 116.184C51.223 115.708 49.6391 114.778 48.2532 113.392C46.7683 111.907 45.7783 110.204 45.2833 108.284C44.7884 106.403 44.8181 104.512 45.3724 102.611C45.9268 100.711 46.9761 98.9882 48.5205 97.4439ZM50.9854 99.9088C49.9757 100.919 49.2926 102.057 48.9362 103.324C48.5799 104.631 48.5799 105.918 48.9362 107.185C49.2926 108.492 49.9757 109.65 50.9854 110.66C51.9952 111.669 53.1435 112.343 54.4305 112.679C55.7174 113.055 57.0043 113.055 58.2913 112.679C59.5782 112.343 60.7265 111.669 61.7363 110.66C62.746 109.65 63.4192 108.502 63.7558 107.215C64.1122 105.948 64.1122 104.661 63.7558 103.354C63.3994 102.087 62.7163 100.948 61.7066 99.9385C60.6968 98.9288 59.5485 98.2358 58.2616 97.8596C56.9746 97.5231 55.6877 97.5231 54.4008 97.8596C53.1336 98.216 51.9952 98.8991 50.9854 99.9088Z" fill="#131212"/>
<path d="M124.496 95.9267C126.012 94.411 128.221 93.819 130.292 94.3738L155.548 101.141C157.618 101.696 159.235 103.313 159.79 105.384L166.557 130.639C167.112 132.71 166.52 134.919 165.004 136.435L146.516 154.923C145 156.439 142.791 157.031 140.721 156.476L115.465 149.709C113.394 149.154 111.777 147.537 111.222 145.466L104.455 120.211C103.9 118.14 104.492 115.931 106.008 114.415L124.496 95.9267Z" fill="#131212"/>
<path d="M124.496 95.9267C126.012 94.411 128.221 93.819 130.292 94.3738L155.548 101.141C157.618 101.696 159.235 103.313 159.79 105.384L166.557 130.639C167.112 132.71 166.52 134.919 165.004 136.435L146.516 154.923C145 156.439 142.791 157.031 140.721 156.476L115.465 149.709C113.394 149.154 111.777 147.537 111.222 145.466L104.455 120.211C103.9 118.14 104.492 115.931 106.008 114.415L124.496 95.9267Z" fill="white"/>
<path d="M151.546 109.386C154.812 106.12 160.389 107.614 161.584 112.076L166.558 130.639C167.112 132.71 166.52 134.919 165.005 136.435L146.516 154.923C145 156.439 142.791 157.031 140.721 156.476L122.157 151.502C117.696 150.307 116.201 144.73 119.468 141.464L151.546 109.386Z" fill="#F34242"/>
<path d="M139.822 141.943C137.766 142.494 135.84 142.662 134.044 142.448C132.247 142.233 130.737 141.681 129.513 140.792C128.281 139.875 127.47 138.687 127.079 137.226C126.804 136.199 126.902 135.375 127.374 134.756C127.865 134.102 128.75 133.619 130.029 133.305C130.177 134.077 130.284 134.585 130.35 134.828C130.835 136.64 131.817 137.87 133.295 138.518C134.766 139.138 136.637 139.144 138.909 138.535C143.615 137.274 145.537 135.034 144.674 131.816C144.247 130.22 143.366 129.152 142.032 128.61C140.692 128.042 138.967 128.041 136.857 128.606L135.437 128.986C134.95 129.117 134.505 129.077 134.1 128.866C133.716 128.621 133.458 128.256 133.328 127.769C133.19 127.255 133.23 126.809 133.448 126.432C133.693 126.048 134.059 125.79 134.546 125.66L136.006 125.268C137.737 124.805 138.991 124.019 139.767 122.913C140.562 121.772 140.768 120.485 140.384 119.051C139.986 117.564 139.171 116.579 137.94 116.097C136.737 115.608 135.148 115.628 133.173 116.157C131.064 116.722 129.543 117.536 128.61 118.597C127.696 119.625 127.428 120.842 127.805 122.248C127.957 122.816 128.142 123.288 128.359 123.665C127.237 124.024 126.26 124.054 125.426 123.755C124.592 123.457 124.06 122.875 123.828 122.009C123.494 120.765 123.63 119.54 124.234 118.335C124.859 117.095 125.866 115.985 127.255 115.003C128.645 114.022 130.313 113.271 132.26 112.749C134.235 112.22 136.053 112.081 137.714 112.332C139.403 112.575 140.812 113.183 141.942 114.155C143.072 115.128 143.851 116.412 144.279 118.008C145.025 120.794 144.117 123.298 141.553 125.521C143.56 125.766 145.111 126.307 146.205 127.145C147.326 127.975 148.101 129.188 148.528 130.783C149.209 133.326 148.776 135.601 147.227 137.611C145.671 139.593 143.203 141.037 139.822 141.943Z" fill="white"/>
<path d="M139.822 141.943C137.766 142.494 135.84 142.662 134.044 142.448C132.247 142.233 130.737 141.681 129.513 140.792C128.281 139.875 127.47 138.687 127.079 137.226C126.804 136.199 126.902 135.375 127.374 134.756C127.865 134.102 128.75 133.619 130.029 133.305C130.177 134.077 130.284 134.585 130.35 134.828C130.835 136.64 131.817 137.87 133.295 138.518C134.766 139.138 136.637 139.144 138.909 138.535C143.615 137.274 145.537 135.034 144.674 131.816C144.247 130.22 143.366 129.152 142.032 128.61C140.692 128.042 138.967 128.041 136.857 128.606L135.437 128.986C134.95 129.117 134.505 129.077 134.1 128.866C133.716 128.621 133.458 128.256 133.328 127.769C133.19 127.255 133.23 126.809 133.448 126.432C133.693 126.048 134.059 125.79 134.546 125.66L136.006 125.268C137.737 124.805 138.991 124.019 139.767 122.913C140.562 121.772 140.768 120.485 140.384 119.051C139.986 117.564 139.171 116.579 137.94 116.097C136.737 115.608 135.148 115.628 133.173 116.157C131.064 116.722 129.543 117.536 128.61 118.597C127.696 119.625 127.428 120.842 127.805 122.248C127.957 122.816 128.142 123.288 128.359 123.665C127.237 124.024 126.26 124.054 125.426 123.755C124.592 123.457 124.06 122.875 123.828 122.009C123.494 120.765 123.63 119.54 124.234 118.335C124.859 117.095 125.866 115.985 127.255 115.003C128.645 114.022 130.313 113.271 132.26 112.749C134.235 112.22 136.053 112.081 137.714 112.332C139.403 112.575 140.812 113.183 141.942 114.155C143.072 115.128 143.851 116.412 144.279 118.008C145.025 120.794 144.117 123.298 141.553 125.521C143.56 125.766 145.111 126.307 146.205 127.145C147.326 127.975 148.101 129.188 148.528 130.783C149.209 133.326 148.776 135.601 147.227 137.611C145.671 139.593 143.203 141.037 139.822 141.943Z" fill="#131212"/>
</svg>
